<svg id="Capa_1" data-name="Capa 1" xmlns="http://www.w3.org/2000/svg" viewBox="0 0 503 480.1"><defs><style>.cls-1{fill:#465769;}.cls-2{fill:#fff;stroke:#fff;stroke-miterlimit:10;stroke-width:10px;}</style></defs><title>Mesa de trabajo 1</title><rect class="cls-1" width="503" height="480"/><path class="cls-2" d="M217.93,331.68H50.4a7.08,7.08,0,0,1-7.07-7.07V52A7.08,7.08,0,0,1,50.4,45H452A7.08,7.08,0,0,1,459.09,52v59.69a72.26,72.26,0,0,1,32.16,11.59V52A39.27,39.27,0,0,0,452,12.81H50.4A39.28,39.28,0,0,0,11.17,52V324.61A39.27,39.27,0,0,0,50.4,363.83H185v52.59H163.79a24.12,24.12,0,0,0,0,48.24H231.5a72.25,72.25,0,0,1-13.57-42V331.68Z"/><path class="cls-2" d="M352.91,440.33V405.59H282.25V183.68a8.48,8.48,0,0,1,8.48-8.48H450.61a8.48,8.48,0,0,1,8.48,8.48v68.68h12.05a39.67,39.67,0,0,1,20.11,5.6V183.68A40.68,40.68,0,0,0,450.61,143H290.73a40.68,40.68,0,0,0-40.64,40.64V422.62a40.68,40.68,0,0,0,40.64,40.64h69.43A42.56,42.56,0,0,1,352.91,440.33Z"/><path class="cls-2" d="M471.14,272.46h-78A20.16,20.16,0,0,0,373,292.6V440.33a20.15,20.15,0,0,0,20.13,20.13h78a20.15,20.15,0,0,0,20.13-20.13V292.6A20.16,20.16,0,0,0,471.14,272.46Zm-74,24.12h70v127.7h-70Zm35,154.1a8.67,8.67,0,0,1-8.51-8.51,8.5,8.5,0,0,1,17,0,8.66,8.66,0,0,1-8.48,8.51Z"/></svg>